# xmcd
#
# Track frame offsets:
#	150
#	18231
#	29810
#	42786
#	61550
#	74778
#	94075
#	107726
#	123386
#	139281
#	154768
#	169968
#	188340
#	207867
#	227588
#	240290
#	253595
#	264013
#	278958
#	295937
#	313103
#	335555
#
# Disc length: 4758 seconds
# Revision: 0
# Processed by: cddbd v1.5.2PL0 Copyright (c) Steve Scherf et al.
# Submitted via: dBpowerAMP V12.0
#
DISCID=39129416
DTITLE=Various Artist - Boogie - Australian Blues, R&B and Heavy Rock From The '70's
DYEAR=1974
DGENRE=Blues Rock
TTITLE0=Matt Taylor - I Remember When I Was Young
TTITLE1=The La De Das - Too Pooped To Pop
TTITLE2=Cold Chisel - Goodbye (Astrid, Goodbye)
TTITLE3=The Dingoes - Come On Down
TTITLE4=Madder Lake - Booze Blues
TTITLE5=Sid Rumpo - Breaking My Back
TTITLE6=Thump'n Pig and Puff'n Billy - Captain Straightman
TTITLE7=Kevin Borich Express - I'm Going Somewhere
TTITLE8=Buffalo - Lucky
TTITLE9=Ted Mulry Gang - Darktown Strutters Ball
TTITLE10=The Angels - Am I Ever Gonna See Your Face Again
TTITLE11=Lobby Loyde and The Coloured Balls - Mama Loves To
TTITLE12=Billy Thorpe and The Aztecs - Most People I Know Think That I'm Crazy
TTITLE13=The Ferrets - Janie May
TTITLE14=Skyhooks - Saturday Night
TTITLE15=Martin Armiger - I Love My Car
TTITLE16=The Sports - You Ain't Home Yet
TTITLE17=Jo Jo Zep and The Falcons - Ain't Got No Money
TTITLE18=Daddy Cool - Hi Honey Ho
TTITLE19=Max Merritt and The Meteors - Fannie Mae
TTITLE20=Chain - Gertrude St Blues
TTITLE21=Carson - Boogie (Part One)
EXTD=
EXTT0=
EXTT1=
EXTT2=
EXTT3=
EXTT4=
EXTT5=
EXTT6=
EXTT7=
EXTT8=
EXTT9=
EXTT10=
EXTT11=
EXTT12=
EXTT13=
EXTT14=
EXTT15=
EXTT16=
EXTT17=
EXTT18=
EXTT19=
EXTT20=
EXTT21=
PLAYORDER=
